PathFileType	4	(x/y/z)	A01_FAST_T0022.trc
DataRate	CameraRate	NumFrames	NumMarkers	Units	OrigDataRate	OrigDataStartFrame	OrigNumFrames
240	240	5	48	mm	240	113	299
Frame#	Time	TOP_HEAD			R_AC			L_AC			R_ASIS			L_ASIS			R_PSIS			L_PSIS			SACRAL			L_IC			R_IC			L_GT			R_GT			R_LAT_KNEE			R_MED_KNEE			L_MED_KNEE			L_LAT_KNEE			R_TOE			L_TOE			R_1ST_MET			L_1ST_MET			L_5TH_MET			R_5TH_MET			R_LAT_ANK			R_MED_ANK			L_MED_ANK			L_LAT_ANK			L_HEEL_SUP			R_HEEL_SUP			L_HEEL_LAT			R_HEEL_LAT			L_HEEL_MED			R_HEEL_MED			R_LL_PROX_POST			R_LL_PROX_ANT			R_LL_DIST_ANT			R_LL_DIST_POST			R_THIGH_PROX_POST			R_THIGH_PROX_ANT			R_THIGH_DIST_ANT			R_THIGH_DIST_POST			L_PROS_PROX_ANT			L_PROS_PROX_POST			L_PROS_DIST_POST			L_PROS_DIST_ANT			L_THIGH_PROX_ANT			L_THIGH_PROX_POST			L_THIGH_DIST_POST			L_THIGH_DIST_ANT			
		X1	Y1	Z1	X2	Y2	Z2	X3	Y3	Z3	X4	Y4	Z4	X5	Y5	Z5	X6	Y6	Z6	X7	Y7	Z7	X8	Y8	Z8	X9	Y9	Z9	X10	Y10	Z10	X11	Y11	Z11	X12	Y12	Z12	X13	Y13	Z13	X14	Y14	Z14	X15	Y15	Z15	X16	Y16	Z16	X17	Y17	Z17	X18	Y18	Z18	X19	Y19	Z19	X20	Y20	Z20	X21	Y21	Z21	X22	Y22	Z22	X23	Y23	Z23	X24	Y24	Z24	X25	Y25	Z25	X26	Y26	Z26	X27	Y27	Z27	X28	Y28	Z28	X29	Y29	Z29	X30	Y30	Z30	X31	Y31	Z31	X32	Y32	Z32	X33	Y33	Z33	X34	Y34	Z34	X35	Y35	Z35	X36	Y36	Z36	X37	Y37	Z37	X38	Y38	Z38	X39	Y39	Z39	X40	Y40	Z40	X41	Y41	Z41	X42	Y42	Z42	X43	Y43	Z43	X44	Y44	Z44	X45	Y45	Z45	X46	Y46	Z46	X47	Y47	Z47	X48	Y48	Z48	

113	0.46823	51.59	1765.8	274.01	-175.05	1571.6	525.1	-178.51	1556.8	65.7	-202.31	1099.2	503.43	-198.23	1030.7	153.96	-414.15	1092.6	381.97	-406.58	1103.8	249.47	-427.3	1068.5	314.3	-216.53	1155.6	115.48	-236.79	1203.9	511.42	-270.66	956.1	117.66	-248.27	988.13	549.69	-113	598.55	496.97	-73.508	599.35	368.74	-283.3	557.34	345.96	-309.38	563.62	190.34	79.397	106.27	433.71	-250.47	76.537	261.45	2.186	78.608	382.15	-331.44	55.441	319.6	-365.56	48.748	194.31	-35.219	74.651	510.91	-155.68	133.03	474.79	-138.59	139.28	373.91	-439.35	144.56	306.4	-474.35	140.87	240.03	-570.85	99.439	285.85	-244.3	89.528	409.58	-564.08	69.612	254.2	-239.89	68.267	446.17	-553.21	68.273	317.72	-230.74	62.843	386.95	-213.76	428.35	490.96	-147.63	416.74	519.18	-147.09	342.05	505.18	-200.21	346.36	486.68	-230.82	838.04	532.88	-173	881.32	535.21	-137.14	797.53	528.53	-192.92	757	523.11	-285.31	472.52	204.44	-339.05	486.25	195.59	-360.85	428.18	206.88	-307.18	421.38	213.83	-222.15	807.41	156.72	-291.17	820.84	142.26	-288.67	745.35	156.39	-225.73	734.04	169.8
114	0.47241	58.238	1765.1	274.87	-168.42	1570.8	525.31	-171.57	1556.6	66.025	-195.74	1098.4	503.4	-192.54	1030	153.87	-407.88	1092	382.36	-400.56	1103.4	249.88	-421.21	1068.1	314.71	-210.79	1155.2	115.54	-230.38	1203	511.5	-265.33	955.58	117.66	-241.69	987.33	549.77	-106.26	597.81	495.94	-67.056	599.04	367.68	-280.18	556.84	346	-306.19	563.25	190.38	98.564	110.42	433.81	-250.25	76.321	261.44	22.267	80.765	382.02	-331.33	55.44	319.59	-365.41	48.851	194.33	-15.408	75.984	510.68	-137.2	131.17	474.12	-120.04	137.79	373.29	-438.74	144.98	306.46	-473.68	141.52	240.03	-570.45	100.29	285.84	-224.37	85.257	408.63	-563.83	70.455	254.19	-219.6	64.187	445.29	-552.98	69.082	317.72	-210.16	58.981	386.19	-203.05	425.07	489.89	-136.73	415.15	518.28	-134.17	340.52	504.34	-187.43	343.46	485.67	-224.35	837.2	532.5	-166.51	880.43	534.98	-130.7	796.65	527.92	-186.51	756.17	522.38	-282.65	472.03	204.47	-336.3	486.08	195.62	-358.47	428.15	206.9	-304.83	421.02	213.85	-217.6	806.7	156.67	-286.55	820.48	142.3	-284.32	745	156.36	-221.51	733.36	169.71
115	0.47659	64.887	1764.3	275.74	-161.76	1569.9	525.53	-164.63	1556.4	66.364	-189.13	1097.6	503.37	-186.83	1029.3	153.79	-401.57	1091.5	382.77	-394.5	1102.9	250.32	-415.08	1067.6	315.15	-205.04	1154.8	115.6	-223.92	1201.9	511.6	-259.97	955.02	117.66	-235.1	986.48	549.87	-99.626	596.98	494.93	-60.691	598.63	366.62	-277.05	556.33	346.05	-303	562.88	190.42	117.49	114.83	433.84	-250.03	76.104	261.44	42.152	83.212	381.82	-331.21	55.451	319.58	-365.27	48.956	194.34	4.2458	77.565	510.4	-118.8	129.53	473.41	-101.6	136.55	372.64	-438.11	145.41	306.51	-473.02	142.16	240.03	-570.04	101.15	285.84	-204.47	81.262	407.66	-563.58	71.303	254.19	-199.33	60.381	444.38	-552.74	69.898	317.72	-189.59	55.419	385.38	-192.35	421.81	488.85	-125.89	413.56	517.38	-121.33	339.05	503.5	-174.68	340.63	484.66	-217.95	836.28	532.14	-160.05	879.44	534.78	-124.33	795.67	527.33	-180.18	755.25	521.68	-280	471.53	204.51	-333.56	485.9	195.65	-356.09	428.1	206.93	-302.47	420.65	213.88	-213.03	805.96	156.62	-281.91	820.09	142.34	-279.95	744.62	156.32	-217.28	732.64	169.63
116	0.48077	71.537	1763.5	276.6	-155.07	1569.1	525.76	-157.69	1556.2	66.719	-182.47	1096.7	503.36	-181.09	1028.5	153.71	-395.21	1090.9	383.2	-388.39	1102.4	250.77	-408.92	1067.1	315.61	-199.27	1154.3	115.66	-217.41	1200.9	511.72	-254.59	954.43	117.68	-228.5	985.58	549.98	-93.081	596.05	493.93	-54.411	598.13	365.55	-273.91	555.79	346.11	-299.79	562.48	190.47	136.15	119.48	433.81	-249.82	75.888	261.43	61.821	85.946	381.56	-331.08	55.472	319.57	-365.12	49.063	194.35	23.731	79.389	510.06	-100.49	128.12	472.68	-83.266	135.55	371.96	-437.47	145.83	306.55	-472.35	142.8	240.02	-569.63	102.02	285.84	-184.63	77.544	406.67	-563.32	72.156	254.19	-179.09	56.85	443.44	-552.5	70.721	317.71	-169.07	52.155	384.53	-181.68	418.56	487.82	-115.11	411.99	516.49	-108.57	337.65	502.63	-161.96	337.88	483.67	-211.59	835.29	531.8	-153.64	878.36	534.61	-118.03	794.58	526.79	-173.94	754.25	521	-277.34	471	204.55	-330.8	485.7	195.68	-353.7	428.04	206.96	-300.12	420.26	213.9	-208.44	805.19	156.59	-277.24	819.66	142.38	-275.55	744.22	156.29	-213.04	731.9	169.55
117	0.48496	78.188	1762.7	277.45	-148.35	1568.2	525.98	-150.76	1556	67.089	-175.76	1095.7	503.36	-175.32	1027.7	153.64	-388.82	1090.3	383.66	-382.25	1101.9	251.25	-402.71	1066.6	316.09	-193.48	1153.8	115.72	-210.84	1199.8	511.86	-249.19	953.8	117.7	-221.89	984.62	550.09	-86.626	595.05	492.94	-48.214	597.55	364.48	-270.76	555.23	346.17	-296.57	562.07	190.52	154.53	124.37	433.71	-249.6	75.671	261.43	81.256	88.961	381.22	-330.93	55.504	319.56	-364.97	49.172	194.36	43.037	81.451	509.65	-82.28	126.93	471.93	-65.069	134.79	371.25	-436.81	146.26	306.59	-471.68	143.45	240.02	-569.23	102.9	285.84	-164.87	74.102	405.66	-563.06	73.015	254.18	-158.91	53.591	442.47	-552.25	71.551	317.71	-148.61	49.188	383.65	-171.03	415.35	486.82	-104.39	410.44	515.59	-95.895	336.31	501.76	-149.28	335.22	482.69	-205.29	834.23	531.48	-147.27	877.2	534.47	-111.79	793.4	526.28	-167.76	753.17	520.36	-274.68	470.46	204.59	-328.05	485.48	195.72	-351.31	427.96	207	-297.76	419.86	213.94	-203.84	804.38	156.56	-272.56	819.2	142.44	-271.12	743.79	156.25	-208.78	731.12	169.48
